<?xml version="1.0" encoding="UTF-8"?><svg id="Logos" xmlns="http://www.w3.org/2000/svg" viewBox="0 0 500 324.49"><defs><style>.cls-1{fill:#fff;}</style></defs><polygon class="cls-1" points="186.32 129.92 175.96 129.92 175.96 52.25 253.63 52.25 253.63 62.61 186.32 62.61 186.32 129.92"/><polygon class="cls-1" points="310.48 185.7 232.82 185.7 232.82 175.34 300.13 175.34 300.13 108.03 310.48 108.03 310.48 185.7"/><path class="cls-1" d="m310.47,90.69h-32.08l31.17-30.99-7.3-7.35-31.23,31.07v-31.17h-10.36v48.81h49.79v-10.36Zm-134.4,56.6h31.07l-31.15,30.99,7.3,7.33,31.23-31.04v31.15h10.36v-48.78h-48.81v10.36Z"/><path class="cls-1" d="m63.94,244.77c4.74,0,8.52,1.37,11.37,4.09,2.84,2.73,4.26,6.45,4.26,11.15s-1.42,8.41-4.26,11.13c-2.84,2.72-6.63,4.07-11.37,4.07h-13.83v-30.45h13.83Zm0,25.33c3.06-.03,5.39-.99,6.99-2.89,1.59-1.89,2.39-4.29,2.39-7.2,0-3.22-.78-5.71-2.34-7.48s-3.91-2.65-7.03-2.65h-7.67v20.22h7.67Z"/><path class="cls-1" d="m81.08,269.34c0-4.67,5.07-7.26,15.2-7.77h.43v-.33c0-2.21-1.42-3.31-4.26-3.31-1.2,0-2.14.19-2.82.57-.68.38-1.06.76-1.16,1.14l-.14.57h-6.2c0-.19.03-.43.1-.74.06-.3.3-.83.71-1.61.41-.77.95-1.46,1.61-2.06s1.69-1.14,3.08-1.63c1.39-.49,3.01-.73,4.88-.73,3.35,0,5.88.69,7.6,2.06,1.72,1.37,2.58,3.28,2.58,5.71l.05,6.2v1.18c0,.57.09.96.26,1.18.17.22.5.33.97.33h.62v5.12h-.66c-1.92,0-3.39-.18-4.4-.54-1.01-.36-1.74-1.03-2.18-2.01-1.67,2.02-4.31,3.03-7.91,3.03-2.78,0-4.86-.6-6.25-1.8-1.39-1.2-2.08-2.72-2.08-4.55Zm6.25-.14c0,.63.3,1.12.9,1.47.6.35,1.36.54,2.27.57h.19c1.45,0,2.82-.41,4.1-1.23,1.28-.82,1.92-1.97,1.92-3.46v-1.23c-1.26.1-2.28.19-3.05.28-.77.1-1.73.27-2.86.52-1.14.25-2,.64-2.58,1.16s-.87,1.16-.87,1.92Z"/><path class="cls-1" d="m105.47,253.91h2.75v-6.25h6.11v6.25h5.12v5.11h-5.07v9.47c0,.6.11,1.02.33,1.25s.62.35,1.18.35h3.55v5.12h-3.55c-2.94,0-4.95-.44-6.04-1.32-1.09-.88-1.63-2.68-1.63-5.4v-9.47h-2.75v-5.11Z"/><path class="cls-1" d="m121.61,269.34c0-4.67,5.07-7.26,15.2-7.77h.43v-.33c0-2.21-1.42-3.31-4.26-3.31-1.2,0-2.14.19-2.82.57-.68.38-1.06.76-1.16,1.14l-.14.57h-6.2c0-.19.03-.43.1-.74.06-.3.3-.83.71-1.61.41-.77.95-1.46,1.61-2.06s1.69-1.14,3.08-1.63c1.39-.49,3.01-.73,4.88-.73,3.35,0,5.88.69,7.6,2.06,1.72,1.37,2.58,3.28,2.58,5.71l.05,6.2v1.18c0,.57.09.96.26,1.18.17.22.5.33.97.33h.62v5.12h-.66c-1.92,0-3.39-.18-4.4-.54-1.01-.36-1.74-1.03-2.18-2.01-1.67,2.02-4.31,3.03-7.91,3.03-2.78,0-4.86-.6-6.25-1.8-1.39-1.2-2.08-2.72-2.08-4.55Zm6.25-.14c0,.63.3,1.12.9,1.47.6.35,1.36.54,2.27.57h.19c1.45,0,2.82-.41,4.1-1.23,1.28-.82,1.92-1.97,1.92-3.46v-1.23c-1.26.1-2.28.19-3.05.28-.77.1-1.73.27-2.86.52-1.14.25-2,.64-2.58,1.16s-.87,1.16-.87,1.92Z"/><path class="cls-1" d="m147.42,260.02c0-4.77,1.4-8.58,4.19-11.44s6.67-4.29,11.62-4.29c1.83,0,3.51.19,5.04.57,1.53.38,2.78.87,3.74,1.49.96.61,1.82,1.29,2.58,2.01.76.73,1.32,1.46,1.7,2.2.38.74.68,1.42.9,2.04.22.61.36,1.11.42,1.49l.1.57h-6.58c-.03-.12-.08-.31-.14-.54-.07-.24-.28-.65-.64-1.23-.36-.58-.81-1.1-1.33-1.56s-1.29-.87-2.32-1.23c-1.03-.36-2.19-.54-3.48-.54-2.9,0-5.17.95-6.79,2.84s-2.44,4.43-2.44,7.62.82,5.64,2.46,7.55c1.64,1.91,3.9,2.86,6.77,2.86,1.26,0,2.39-.17,3.39-.52,1-.35,1.75-.77,2.27-1.28s.96-1.01,1.3-1.51.57-.93.66-1.28l.14-.52h6.53c0,.16-.02.36-.07.59-.05.24-.19.72-.43,1.44-.24.73-.53,1.41-.87,2.06-.35.65-.89,1.37-1.63,2.18-.74.81-1.6,1.49-2.56,2.06-.96.57-2.2,1.05-3.72,1.44-1.51.39-3.19.59-5.02.59-5.11,0-9.03-1.4-11.74-4.21s-4.07-6.63-4.07-11.46Z"/><path class="cls-1" d="m180.7,244.77h6.11v23.72c0,.6.11,1.02.33,1.25.22.24.63.35,1.23.35h1.7v5.12h-1.7c-2.94,0-4.95-.44-6.04-1.32-1.09-.88-1.63-2.68-1.63-5.4v-23.72Z"/><path class="cls-1" d="m192.21,269.34c0-4.67,5.07-7.26,15.2-7.77h.43v-.33c0-2.21-1.42-3.31-4.26-3.31-1.2,0-2.14.19-2.82.57-.68.38-1.06.76-1.16,1.14l-.14.57h-6.2c0-.19.03-.43.1-.74.06-.3.3-.83.71-1.61.41-.77.95-1.46,1.61-2.06s1.69-1.14,3.08-1.63c1.39-.49,3.01-.73,4.88-.73,3.35,0,5.88.69,7.6,2.06,1.72,1.37,2.58,3.28,2.58,5.71l.05,6.2v1.18c0,.57.09.96.26,1.18.17.22.5.33.97.33h.62v5.12h-.66c-1.92,0-3.39-.18-4.4-.54-1.01-.36-1.74-1.03-2.18-2.01-1.67,2.02-4.31,3.03-7.91,3.03-2.78,0-4.86-.6-6.25-1.8-1.39-1.2-2.08-2.72-2.08-4.55Zm6.25-.14c0,.63.3,1.12.9,1.47.6.35,1.36.54,2.27.57h.19c1.45,0,2.82-.41,4.1-1.23,1.28-.82,1.92-1.97,1.92-3.46v-1.23c-1.26.1-2.28.19-3.05.28-.77.1-1.73.27-2.86.52-1.14.25-2,.64-2.58,1.16s-.87,1.16-.87,1.92Z"/><path class="cls-1" d="m217.4,267.97h6.16c0,.09,0,.21.02.35s.1.4.26.78c.16.38.38.71.66.99s.74.55,1.37.78c.63.24,1.39.36,2.27.36h.14c2.52,0,3.79-.76,3.79-2.27v-.09c-.03-.76-.76-1.37-2.18-1.85-1.42-.47-2.99-.84-4.71-1.11-1.72-.27-3.33-.87-4.83-1.8-1.5-.93-2.3-2.19-2.39-3.76v-.43c0-1.67.87-3.17,2.6-4.5s4.1-1.99,7.1-1.99c1.86,0,3.5.23,4.9.69,1.41.46,2.43,1.02,3.08,1.68.64.66,1.16,1.32,1.54,1.99.38.66.6,1.23.66,1.71l.1.66h-6.2c0-.06-.02-.15-.05-.26-.03-.11-.13-.29-.28-.55-.16-.25-.36-.48-.62-.69s-.65-.39-1.18-.57c-.54-.17-1.17-.26-1.89-.26-1.2,0-2.13.21-2.79.62-.63.38-.95.84-.95,1.37,0,.03.02.21.05.54s.54.69,1.54,1.06c.99.38,2.18.7,3.55.97,1.37.27,2.75.59,4.14.97,1.39.38,2.59,1,3.6,1.85,1.01.85,1.55,1.94,1.61,3.27v.52c0,1.92-.88,3.52-2.65,4.78-1.77,1.26-4.45,1.89-8.05,1.89-1.86,0-3.5-.27-4.9-.8-1.4-.54-2.44-1.18-3.1-1.94s-1.19-1.51-1.59-2.25c-.39-.74-.62-1.38-.69-1.92l-.1-.8Z"/><path class="cls-1" d="m240.55,267.97h6.16c0,.09,0,.21.02.35s.1.4.26.78c.16.38.38.71.66.99s.74.55,1.37.78c.63.24,1.39.36,2.27.36h.14c2.52,0,3.79-.76,3.79-2.27v-.09c-.03-.76-.76-1.37-2.18-1.85-1.42-.47-2.99-.84-4.71-1.11-1.72-.27-3.33-.87-4.83-1.8-1.5-.93-2.3-2.19-2.39-3.76v-.43c0-1.67.87-3.17,2.6-4.5,1.74-1.32,4.1-1.99,7.1-1.99,1.86,0,3.5.23,4.9.69,1.41.46,2.43,1.02,3.08,1.68.64.66,1.16,1.32,1.54,1.99.38.66.6,1.23.66,1.71l.1.66h-6.2c0-.06-.02-.15-.05-.26-.03-.11-.13-.29-.28-.55-.16-.25-.36-.48-.62-.69s-.65-.39-1.18-.57c-.54-.17-1.17-.26-1.89-.26-1.2,0-2.13.21-2.79.62-.63.38-.95.84-.95,1.37,0,.03.02.21.05.54s.54.69,1.54,1.06c.99.38,2.18.7,3.55.97,1.37.27,2.75.59,4.14.97,1.39.38,2.59,1,3.6,1.85s1.55,1.94,1.61,3.27v.52c0,1.92-.88,3.52-2.65,4.78-1.77,1.26-4.45,1.89-8.05,1.89-1.86,0-3.5-.27-4.9-.8-1.4-.54-2.44-1.18-3.1-1.94s-1.19-1.51-1.59-2.25c-.39-.74-.62-1.38-.69-1.92l-.1-.8Z"/><path class="cls-1" d="m263.85,260.02c0-4.8,1.4-8.62,4.19-11.46,2.79-2.84,6.75-4.26,11.86-4.26,1.83,0,3.51.19,5.04.57,1.53.38,2.79.87,3.76,1.49.98.61,1.85,1.29,2.6,2.01.76.73,1.33,1.46,1.73,2.2.39.74.71,1.42.95,2.04.24.61.39,1.11.45,1.49l.1.57h-6.58c-.03-.12-.08-.31-.14-.54s-.28-.65-.64-1.23c-.36-.58-.81-1.1-1.35-1.56-.54-.46-1.32-.87-2.34-1.23-1.03-.36-2.2-.54-3.53-.54-3.13,0-5.49.94-7.1,2.82-1.61,1.88-2.41,4.43-2.41,7.65s.83,5.64,2.51,7.55c1.67,1.91,3.99,2.86,6.96,2.86,1.48,0,2.79-.21,3.93-.64,1.14-.43,2.01-.98,2.63-1.66.61-.68,1.08-1.32,1.4-1.94.32-.62.55-1.24.71-1.87h-8.71v-5.12h14.96c.03.66.05,1.31.05,1.94,0,4.48-1.26,8.03-3.79,10.63-2.53,2.6-6.25,3.91-11.18,3.91s-9.11-1.4-11.88-4.21c-2.78-2.81-4.17-6.63-4.17-11.46Z"/><path class="cls-1" d="m300.22,256.51c2.02-2.05,4.8-3.08,8.33-3.08s6.18,1.02,8.12,3.05c1.94,2.04,2.91,4.74,2.91,8.12,0,.57-.03,1.15-.09,1.75h-16.34c.13,1.39.7,2.49,1.73,3.31,1.03.82,2.28,1.23,3.76,1.23.7,0,1.32-.08,1.87-.24.55-.16.98-.34,1.28-.54.3-.2.55-.42.76-.64.2-.22.34-.41.4-.57l.1-.24h6.11c-.03.19-.1.44-.21.76-.11.32-.41.88-.9,1.68-.49.8-1.08,1.51-1.78,2.13-.69.61-1.72,1.18-3.08,1.68-1.36.5-2.89.76-4.59.76-3.41,0-6.16-1-8.26-3.01-2.1-2.01-3.15-4.7-3.15-8.07s1.01-6.01,3.03-8.1Zm13.45,5.78v-.14c0-1.2-.47-2.15-1.42-2.86-.95-.71-2.16-1.06-3.65-1.06s-2.76.38-3.72,1.14c-.96.76-1.54,1.74-1.73,2.94h10.51Z"/><path class="cls-1" d="m328.25,253.91v2.98c1.45-2.27,3.6-3.43,6.44-3.46h.33c3.47,0,5.92.92,7.34,2.75s2.13,4.45,2.13,7.86v11.18h-6.11v-11.18c0-3.82-1.42-5.74-4.26-5.78h-.14c-1.89,0-3.28.62-4.17,1.87-.88,1.25-1.32,3.02-1.32,5.33v9.75h-6.11v-21.31h5.87Z"/><path class="cls-1" d="m350.08,256.51c2.02-2.05,4.8-3.08,8.33-3.08s6.18,1.02,8.12,3.05c1.94,2.04,2.91,4.74,2.91,8.12,0,.57-.03,1.15-.09,1.75h-16.34c.13,1.39.7,2.49,1.73,3.31,1.03.82,2.28,1.23,3.76,1.23.7,0,1.32-.08,1.87-.24.55-.16.98-.34,1.28-.54.3-.2.55-.42.76-.64.2-.22.34-.41.4-.57l.1-.24h6.11c-.03.19-.1.44-.21.76-.11.32-.41.88-.9,1.68-.49.8-1.08,1.51-1.78,2.13-.69.61-1.72,1.18-3.08,1.68-1.36.5-2.89.76-4.59.76-3.41,0-6.16-1-8.26-3.01-2.1-2.01-3.15-4.7-3.15-8.07s1.01-6.01,3.03-8.1Zm13.45,5.78v-.14c0-1.2-.47-2.15-1.42-2.86-.95-.71-2.16-1.06-3.65-1.06s-2.76.38-3.72,1.14c-.96.76-1.54,1.74-1.73,2.94h10.51Z"/><path class="cls-1" d="m372.24,253.91h5.97v3.17c1.26-2.12,3.17-3.17,5.73-3.17h2.51v5.11h-2.37c-2.49,0-4.07.61-4.74,1.82-.66,1.22-.99,3.84-.99,7.88v6.49h-6.11v-21.31Z"/><path class="cls-1" d="m387.67,269.34c0-4.67,5.07-7.26,15.2-7.77h.43v-.33c0-2.21-1.42-3.31-4.26-3.31-1.2,0-2.14.19-2.82.57-.68.38-1.06.76-1.16,1.14l-.14.57h-6.2c0-.19.03-.43.1-.74.06-.3.3-.83.71-1.61.41-.77.95-1.46,1.61-2.06s1.69-1.14,3.08-1.63c1.39-.49,3.01-.73,4.88-.73,3.35,0,5.88.69,7.6,2.06,1.72,1.37,2.58,3.28,2.58,5.71l.05,6.2v1.18c0,.57.09.96.26,1.18.17.22.5.33.97.33h.62v5.12h-.66c-1.92,0-3.39-.18-4.4-.54-1.01-.36-1.74-1.03-2.18-2.01-1.67,2.02-4.31,3.03-7.91,3.03-2.78,0-4.86-.6-6.25-1.8-1.39-1.2-2.08-2.72-2.08-4.55Zm6.25-.14c0,.63.3,1.12.9,1.47.6.35,1.36.54,2.27.57h.19c1.45,0,2.82-.41,4.1-1.23,1.28-.82,1.92-1.97,1.92-3.46v-1.23c-1.26.1-2.28.19-3.05.28-.77.1-1.73.27-2.86.52-1.14.25-2,.64-2.58,1.16s-.87,1.16-.87,1.92Z"/><path class="cls-1" d="m412.05,253.91h2.75v-6.25h6.11v6.25h5.12v5.11h-5.07v9.47c0,.6.11,1.02.33,1.25s.62.35,1.18.35h3.55v5.12h-3.55c-2.94,0-4.95-.44-6.04-1.32-1.09-.88-1.63-2.68-1.63-5.4v-9.47h-2.75v-5.11Z"/><path class="cls-1" d="m430.52,256.51c2.02-2.05,4.8-3.08,8.33-3.08s6.18,1.02,8.12,3.05c1.94,2.04,2.91,4.74,2.91,8.12,0,.57-.03,1.15-.09,1.75h-16.34c.13,1.39.7,2.49,1.73,3.31,1.03.82,2.28,1.23,3.76,1.23.7,0,1.32-.08,1.87-.24.55-.16.98-.34,1.28-.54.3-.2.55-.42.76-.64.2-.22.34-.41.4-.57l.1-.24h6.11c-.03.19-.1.44-.21.76-.11.32-.41.88-.9,1.68-.49.8-1.08,1.51-1.78,2.13-.69.61-1.72,1.18-3.08,1.68-1.36.5-2.89.76-4.59.76-3.41,0-6.16-1-8.26-3.01-2.1-2.01-3.15-4.7-3.15-8.07s1.01-6.01,3.03-8.1Zm13.45,5.78v-.14c0-1.2-.47-2.15-1.42-2.86-.95-.71-2.16-1.06-3.65-1.06s-2.76.38-3.72,1.14c-.96.76-1.54,1.74-1.73,2.94h10.51Z"/></svg>